<svg xmlns="http://www.w3.org/2000/svg" width="20" height="20" viewBox="0 0 32 32">
  <g>
    <path fill="currentColor" d="M17 4h-0.8c-0.4 0 -0.8 0.4 -0.9 0.8s0.1 0.9 0.5 1.1C18.4 7.3 20 10 20 13c0 4.4 -3.6 8 -8 8 -2.3 0 -4.6 -1 -6.1 -2.8 -0.3 -0.3 -0.8 -0.4 -1.2 -0.3 -0.4 0.2 -0.6 0.6 -0.6 1.1C5.1 25.4 10.5 30 16.9 30c7.2 0 13 -5.8 13 -13S24.2 4 17 4"/>
    <path fill="currentColor" d="M6 13.2c0.1 0.5 0.5 0.8 1 0.8s0.9 -0.3 1 -0.8c0.5 -2.2 1 -2.7 3.3 -3.3 0.4 0 0.7 -0.4 0.7 -0.9s-0.3 -0.9 -0.8 -1C9 7.5 8.5 7 8 4.8c-0.1 -0.5 -0.5 -0.8 -1 -0.8s-0.9 0.3 -1 0.8C5.5 7 5 7.5 2.8 8c-0.5 0.1 -0.8 0.5 -0.8 1s0.3 0.9 0.8 1c2.2 0.5 2.7 1 3.2 3.2"/>
    <path fill="currentColor" d="M11 14c-0.6 0 -1 0.4 -1 1s0.4 1 1 1c0 0.6 0.4 1 1 1s1 -0.4 1 -1c0.6 0 1 -0.4 1 -1s-0.4 -1 -1 -1c0 -0.6 -0.4 -1 -1 -1s-1 0.4 -1 1"/>
  </g>
</svg>
