<svg xmlns="http://www.w3.org/2000/svg" width="20" height="20" viewBox="0 0 22.006 22.006">
  <g>
    <path fill="currentColor" d="M11.003 5a6 6 0 0 0 0 12c3.312 0 6 -2.687 6 -6S14.315 5 11.003 5m0 10"/>
    <path fill="currentColor" d="M11.003 4c0.553 0 1 -0.443 1 -1.01V1.01a1 1 0 1 0 -2 0v1.98c0 0.558 0.444 1.01 1 1.01"/>
    <path fill="currentColor" d="m17.376 6.045 1.4 -1.401a1 1 0 1 0 -1.414 -1.414l-1.4 1.4a1 1 0 0 0 -0.007 1.421 1 1 0 0 0 1.421 -0.006"/>
    <path fill="currentColor" d="M20.997 10.003H19.017a0.999 0.999 0 1 0 0 2h1.98a1 1 0 1 0 0 -2"/>
    <path fill="currentColor" d="M17.376 15.962a1 1 0 1 0 -1.414 1.414l1.4 1.4a1.003 1.003 0 0 0 1.421 0.007 1 1 0 0 0 -0.007 -1.421z"/>
    <path fill="currentColor" d="M11.003 18.006a1 1 0 0 0 -1 1.011v1.98a1.001 1.001 0 1 0 2 0V19.017c0 -0.559 -0.443 -1.011 -1 -1.011"/>
    <path fill="currentColor" d="m4.63 15.962 -1.4 1.4a1 1 0 1 0 1.414 1.414l1.4 -1.4a1.001 1.001 0 1 0 -1.414 -1.414"/>
    <path fill="currentColor" d="M4 11.003a1 1 0 0 0 -1.01 -1H1.009c-0.558 0 -1.009 0.444 -1.009 1 0 0.553 0.443 1 1.009 1h1.981c0.558 0 1.01 -0.443 1.01 -1"/>
    <path fill="currentColor" d="M4.63 6.045a1 1 0 1 0 1.414 -1.415l-1.4 -1.4a1.001 1.001 0 1 0 -1.414 1.414z"/>
  </g>
</svg>

